<svg xmlns="http://www.w3.org/2000/svg" width="1200" height="800" viewBox="0 0 1200 800">
  <defs>
    <linearGradient id="bg" x1="0" y1="0" x2="1" y2="1">
      <stop offset="0%" stop-color="#171f2c"/>
      <stop offset="100%" stop-color="#0c1017"/>
    </linearGradient>
    <filter id="shadow" x="-20%" y="-20%" width="140%" height="140%">
      <feDropShadow dx="0" dy="18" stdDeviation="18" flood-color="#000" flood-opacity="0.35"/>
    </filter>
  </defs>
  <rect width="1200" height="800" fill="url(#bg)"/>
  <rect x="46" y="46" width="1108" height="708" rx="34" fill="#121722" stroke="#2b3548"/>
  <text x="90" y="136" fill="#eef3ff" font-size="54" font-family="Arial" font-weight="700">AWP | Asiimov</text>
  <text x="90" y="184" fill="#ffbb6a" font-size="24" font-family="Arial">Well-Worn · Covert Sniper · CS2</text>
  <g filter="url(#shadow)" transform="translate(105 300)">
    <rect x="0" y="64" width="760" height="24" rx="12" fill="#eceff7"/>
    <rect x="248" y="18" width="170" height="36" rx="12" fill="#242d3d"/>
    <rect x="642" y="48" width="150" height="16" rx="8" fill="#ff9842"/>
    <rect x="172" y="88" width="110" height="14" rx="7" fill="#ff9842"/>
    <rect x="458" y="88" width="126" height="14" rx="7" fill="#ff9842"/>
    <rect x="306" y="84" width="118" height="118" rx="12" fill="#242d3d" transform="rotate(22 306 84)"/>
    <rect x="54" y="64" width="42" height="24" rx="10" fill="#242d3d"/>
  </g>
  <rect x="90" y="640" width="182" height="44" rx="22" fill="#1b2434" stroke="#39455b"/>
  <text x="124" y="668" fill="#ffd19b" font-size="22" font-family="Arial" font-weight="700">ASIIMOV</text>
</svg>