<svg xmlns="http://www.w3.org/2000/svg" width="1200" height="800" viewBox="0 0 1200 800">
  <defs>
    <linearGradient id="bg" x1="0" y1="0" x2="1" y2="1">
      <stop offset="0%" stop-color="#1a2130"/>
      <stop offset="100%" stop-color="#0c1119"/>
    </linearGradient>
    <filter id="shadow" x="-20%" y="-20%" width="140%" height="140%">
      <feDropShadow dx="0" dy="18" stdDeviation="18" flood-color="#000" flood-opacity="0.35"/>
    </filter>
  </defs>
  <rect width="1200" height="800" fill="url(#bg)"/>
  <rect x="46" y="46" width="1108" height="708" rx="34" fill="#121722" stroke="#2b3548"/>
  <text x="90" y="136" fill="#eef3ff" font-size="54" font-family="Arial" font-weight="700">M4A1-S | Printstream</text>
  <text x="90" y="184" fill="#dfe6ff" font-size="24" font-family="Arial">Minimal Wear · Covert Rifle · CS2</text>
  <g filter="url(#shadow)" transform="translate(110 290)">
    <rect x="0" y="84" width="648" height="28" rx="14" fill="#f3f6fc"/>
    <rect x="528" y="60" width="212" height="18" rx="9" fill="#f3f6fc"/>
    <rect x="186" y="112" width="86" height="150" rx="12" fill="#242d3d" transform="rotate(20 186 112)"/>
    <rect x="72" y="58" width="120" height="18" rx="9" fill="#242d3d"/>
    <rect x="226" y="58" width="176" height="18" rx="9" fill="#242d3d"/>
    <rect x="414" y="58" width="72" height="18" rx="9" fill="#242d3d"/>
  </g>
  <rect x="90" y="640" width="208" height="44" rx="22" fill="#1b2434" stroke="#39455b"/>
  <text x="124" y="668" fill="#eef3ff" font-size="22" font-family="Arial" font-weight="700">PRINTSTREAM</text>
</svg>