<svg xmlns="http://www.w3.org/2000/svg" width="1200" height="800" viewBox="0 0 1200 800">
  <defs>
    <linearGradient id="bg" x1="0" y1="0" x2="1" y2="1">
      <stop offset="0%" stop-color="#1a2233"/>
      <stop offset="100%" stop-color="#0d1118"/>
    </linearGradient>
    <linearGradient id="weapon" x1="0" y1="0" x2="1" y2="0">
      <stop offset="0%" stop-color="#161c27"/>
      <stop offset="100%" stop-color="#2a3140"/>
    </linearGradient>
    <filter id="shadow" x="-20%" y="-20%" width="140%" height="140%">
      <feDropShadow dx="0" dy="18" stdDeviation="18" flood-color="#000" flood-opacity="0.35"/>
    </filter>
  </defs>
  <rect width="1200" height="800" fill="url(#bg)"/>
  <rect x="46" y="46" width="1108" height="708" rx="34" fill="#121722" stroke="#2b3548"/>
  <text x="90" y="136" fill="#eef3ff" font-size="54" font-family="Arial" font-weight="700">AK-47 | Redline</text>
  <text x="90" y="184" fill="#f38676" font-size="24" font-family="Arial">Field-Tested · Classified Rifle · CS2</text>
  <g filter="url(#shadow)" transform="translate(120 275)">
    <rect x="0" y="84" width="595" height="34" rx="16" fill="url(#weapon)"/>
    <rect x="445" y="58" width="180" height="26" rx="10" fill="#2a3140"/>
    <rect x="558" y="98" width="118" height="18" rx="8" fill="#c94343"/>
    <rect x="186" y="113" width="88" height="155" rx="12" fill="#2a3140" transform="rotate(18 186 113)"/>
    <rect x="46" y="70" width="138" height="20" rx="10" fill="#c94343"/>
    <rect x="216" y="70" width="152" height="20" rx="10" fill="#c94343"/>
    <rect x="378" y="70" width="108" height="20" rx="10" fill="#c94343"/>
    <rect x="88" y="84" width="40" height="34" rx="10" fill="#733c2f"/>
    <rect x="146" y="84" width="72" height="34" rx="12" fill="#733c2f"/>
  </g>
  <rect x="90" y="640" width="170" height="44" rx="22" fill="#1b2434" stroke="#39455b"/>
  <text x="126" y="668" fill="#f5b7a6" font-size="22" font-family="Arial" font-weight="700">REDLINE</text>
</svg>